{"title":"UFC 194 Embedded on FOX: Aldo vs McGregor -={SPARROW}=-","uid":12926981,"size":670006502,"categoryP":"video","categoryS":"hd___tv_shows","magnet":"?xt=urn:btih:75bc492b819c0537188461751d12800793227f26&amp;dn=UFC+194+Embedded+on+FOX%3A+Aldo+vs+McGregor+-%3D%7BSPARROW%7D%3D-&amp;tr=udp%3A%2F%2Ftracker.leechers-paradise.org%3A6969&amp;tr=udp%3A%2F%2Fzer0day.ch%3A1337&amp;tr=udp%3A%2F%2Fopen.demonii.com%3A1337&amp;tr=udp%3A%2F%2Ftracker.coppersurfer.tk%3A6969&amp;tr=udp%3A%2F%2Fexodus.desync.com%3A6969","seeders":3,"leechers":0,"uploader":"CenaCme","files":2,"time":1449481220,"description":"Relive McGregor's rise form regional talent to UFC superstar, as well as Jose Aldo's path of destruction over the last 10 years. \r\n\r\nGeneral\r\nComplete name                            : ufc_194_embedded_on_fox.mp4\r\nFormat                                   : MPEG-4\r\nFormat profile                           : Base Media\r\nCodec ID                                 : isom\r\nFile size                                : 639 MiB\r\nDuration                                 : 41mn 49s\r\nOverall bit rate                         : 2 136 Kbps\r\nWriting application                      : Lavf56.27.100\r\n\r\nVideo\r\nID                                       : 1\r\nFormat                                   : AVC\r\nFormat/Info                              : Advanced Video Codec\r\nFormat profile                           :   \r\nFormat settings, CABAC                   : Yes\r\nFormat settings, ReFrames                : 5 frames\r\nCodec ID                                 : avc1\r\nCodec ID/Info                            : Advanced Video Coding\r\nDuration                                 : 41mn 49s\r\nBit rate                                 : 2 002 Kbps\r\nWidth                                    : 1 280 pixels\r\nHeight                                   : 720 pixels\r\nDisplay aspect ratio                     : 16:9\r\nFrame rate mode                          : Constant\r\nFrame rate                               : 24.000 fps\r\nColor space                              : YUV\r\nChroma subsampling                       : 4:2:0\r\nBit depth                                : 8 bits\r\nScan type                                : Progressive\r\nBits/(Pixel*Frame)                       : 0.090\r\nStream size                              : 599 MiB (94%)\r\n\r\nAudio\r\nID                                       : 2\r\nFormat                                   : AAC\r\nFormat/Info                              : Advanced Audio Codec\r\nFormat profile                           : LC\r\nCodec ID                                 : 40\r\nDuration                                 : 41mn 49s\r\nDuration_LastFrame                       : 15ms\r\nBit rate mode                            : Constant\r\nBit rate                                 : 128 Kbps\r\nChannel(s)                               : 2 channels\r\nChannel positions                        : Front: L R\r\nSampling rate                            : 44.1 KHz\r\nCompression mode                         : Lossy\r\nStream size                              : 38.3 MiB (6%)\r\n\r\n\r\nThumb sheet:\r\n \nhttp://extraimago.com/image/GZs","torrent":{"xt":"urn:btih:75bc492b819c0537188461751d12800793227f26","amp;dn":"UFC+194+Embedded+on+FOX%3A+Aldo+vs+McGregor+-%3D%7BSPARROW%7D%3D-","amp;tr":["udp%3A%2F%2Ftracker.leechers-paradise.org%3A6969","udp%3A%2F%2Fzer0day.ch%3A1337","udp%3A%2F%2Fopen.demonii.com%3A1337","udp%3A%2F%2Ftracker.coppersurfer.tk%3A6969","udp%3A%2F%2Fexodus.desync.com%3A6969"],"infoHash":"75bc492b819c0537188461751d12800793227f26","infoHashBuffer":{"type":"Buffer","data":[117,188,73,43,129,156,5,55,24,132,97,117,29,18,128,7,147,34,127,38]},"announce":[],"urlList":[]}}